# xmcd CD database file
#
# Track frame offsets:
#	150
#	25647
#	46354
#	77686
#	103931
#	128304
#	145778
#	168093
#
# Disc length: 2409 seconds
#
# Revision: 0
# Processed by: cddbd v1.5PL3 Copyright (c) Steve Scherf et al.
# Submitted via: CDex 1.51
#
DISCID=56096708
DTITLE=Meddy Gerville - Réunion Island
DYEAR=1997
DGENRE=Jazz
TTITLE0=Réunion Island
TTITLE1=Wynton Blues
TTITLE2=Moussrong
TTITLE3=Cent noms
TTITLE4=Fasticrock
TTITLE5=Tout lé somb'
TTITLE6=Méloddy
TTITLE7=Bonheur
EXTD=YEAR: 1997
EXTT0=
EXTT1=
EXTT2=
EXTT3=
EXTT4=
EXTT5=
EXTT6=
EXTT7=
PLAYORDER=
